<svg xmlns="http://www.w3.org/2000/svg" xmlns:xlink="http://www.w3.org/1999/xlink" width="500" zoomAndPan="magnify" viewBox="0 0 375 374.999991" height="500" preserveAspectRatio="xMidYMid meet" version="1.0"><defs><clipPath id="dbcb3a2d54"><path d="M 57 78.261719 L 319 78.261719 L 319 296.511719 L 57 296.511719 Z M 57 78.261719 " clip-rule="nonzero"/></clipPath><clipPath id="a81b7a8f82"><path d="M 372 370.867188 L 374.808594 370.867188 L 374.808594 374 L 372 374 Z M 372 370.867188 " clip-rule="nonzero"/></clipPath><clipPath id="3eb6bb9d37"><path d="M 371.058594 373 L 372 373 L 372 374 L 371.058594 374 Z M 371.058594 373 " clip-rule="nonzero"/></clipPath><clipPath id="6a1382c812"><path d="M 374 372 L 374.808594 372 L 374.808594 373 L 374 373 Z M 374 372 " clip-rule="nonzero"/></clipPath><clipPath id="b8934745f8"><path d="M 371.058594 374 L 372 374 L 372 375 L 371.058594 375 Z M 371.058594 374 " clip-rule="nonzero"/></clipPath><clipPath id="c1f1d06173"><path d="M 371.058594 373 L 373 373 L 373 375 L 371.058594 375 Z M 371.058594 373 " clip-rule="nonzero"/></clipPath></defs><rect x="-37.5" width="450" fill="#ffffff" y="-37.499999" height="449.999989" fill-opacity="1"/><rect x="-37.5" width="450" fill="#7ed957" y="-37.499999" height="449.999989" fill-opacity="1"/><g clip-path="url(#dbcb3a2d54)"><path fill="#191919" d="M 316.445312 84.371094 C 315.921875 83.441406 315.277344 82.601562 314.519531 81.855469 C 313.757812 81.109375 312.90625 80.480469 311.964844 79.976562 C 311.027344 79.472656 310.035156 79.105469 308.992188 78.882812 C 307.949219 78.660156 306.894531 78.585938 305.832031 78.664062 L 77.332031 92.386719 C 76.207031 92.457031 75.09375 92.613281 73.992188 92.859375 C 72.894531 93.109375 71.820312 93.441406 70.773438 93.859375 C 69.726562 94.28125 68.71875 94.78125 67.753906 95.363281 C 66.789062 95.945312 65.875 96.601562 65.011719 97.328125 C 64.152344 98.058594 63.355469 98.847656 62.621094 99.707031 C 61.886719 100.5625 61.226562 101.472656 60.640625 102.433594 C 60.054688 103.398438 59.546875 104.402344 59.121094 105.445312 C 58.695312 106.488281 58.355469 107.558594 58.101562 108.660156 C 57.847656 109.757812 57.683594 110.871094 57.609375 111.996094 C 57.53125 113.121094 57.546875 114.242188 57.652344 115.367188 C 57.757812 116.488281 57.953125 117.597656 58.238281 118.6875 C 58.519531 119.78125 58.890625 120.839844 59.34375 121.875 C 59.796875 122.90625 60.332031 123.894531 60.945312 124.839844 C 61.558594 125.789062 62.242188 126.679688 62.996094 127.515625 C 63.753906 128.351562 64.574219 129.121094 65.453125 129.828125 C 66.332031 130.53125 67.265625 131.164062 68.246094 131.71875 L 151.128906 178.492188 C 151.492188 178.679688 151.777344 178.953125 151.980469 179.308594 C 152.1875 179.664062 152.28125 180.042969 152.261719 180.453125 L 151.34375 275.625 C 151.328125 276.757812 151.402344 277.878906 151.566406 278.996094 C 151.730469 280.113281 151.988281 281.210938 152.328125 282.289062 C 152.671875 283.363281 153.101562 284.40625 153.613281 285.414062 C 154.125 286.417969 154.714844 287.378906 155.382812 288.289062 C 156.050781 289.199219 156.785156 290.050781 157.59375 290.84375 C 158.398438 291.636719 159.261719 292.359375 160.183594 293.011719 C 161.109375 293.660156 162.078125 294.234375 163.09375 294.730469 C 164.109375 295.222656 165.15625 295.632812 166.238281 295.957031 C 168.269531 296.582031 170.351562 296.894531 172.476562 296.898438 C 174.210938 296.894531 175.921875 296.683594 177.601562 296.253906 C 179.285156 295.828125 180.890625 295.203125 182.414062 294.375 C 183.941406 293.546875 185.34375 292.546875 186.621094 291.371094 C 187.894531 290.195312 189.007812 288.878906 189.957031 287.425781 L 316.085938 96.402344 C 316.683594 95.519531 317.144531 94.570312 317.46875 93.558594 C 317.796875 92.542969 317.976562 91.503906 318.007812 90.4375 C 318.039062 89.375 317.921875 88.324219 317.65625 87.292969 C 317.390625 86.261719 316.988281 85.289062 316.445312 84.371094 Z M 72.78125 123.679688 C 72.230469 123.367188 71.707031 123.011719 71.214844 122.617188 C 70.71875 122.222656 70.257812 121.789062 69.832031 121.320312 C 69.40625 120.851562 69.023438 120.347656 68.679688 119.816406 C 68.332031 119.285156 68.03125 118.730469 67.777344 118.152344 C 67.523438 117.570312 67.316406 116.972656 67.15625 116.359375 C 66.996094 115.746094 66.886719 115.125 66.828125 114.496094 C 66.769531 113.863281 66.757812 113.234375 66.800781 112.601562 C 66.84375 111.96875 66.9375 111.34375 67.078125 110.726562 C 67.222656 110.109375 67.410156 109.507812 67.652344 108.921875 C 67.890625 108.332031 68.175781 107.769531 68.503906 107.230469 C 68.835938 106.6875 69.207031 106.175781 69.617188 105.695312 C 70.03125 105.214844 70.480469 104.769531 70.964844 104.359375 C 71.445312 103.953125 71.960938 103.582031 72.503906 103.257812 C 73.046875 102.929688 73.613281 102.648438 74.199219 102.414062 C 74.789062 102.179688 75.390625 101.992188 76.011719 101.851562 C 76.628906 101.714844 77.253906 101.625 77.886719 101.585938 L 300.542969 88.226562 L 156.808594 171.210938 C 156.441406 170.941406 156.0625 170.695312 155.664062 170.472656 Z M 182.253906 282.363281 C 181.90625 282.890625 181.515625 283.390625 181.085938 283.855469 C 180.65625 284.320312 180.195312 284.75 179.695312 285.140625 C 179.195312 285.535156 178.671875 285.882812 178.117188 286.191406 C 177.5625 286.496094 176.984375 286.757812 176.390625 286.972656 C 175.792969 287.1875 175.183594 287.351562 174.5625 287.46875 C 173.9375 287.582031 173.308594 287.648438 172.675781 287.664062 C 172.042969 287.679688 171.410156 287.644531 170.785156 287.558594 C 170.15625 287.472656 169.539062 287.335938 168.933594 287.152344 C 168.328125 286.964844 167.738281 286.734375 167.171875 286.453125 C 166.601562 286.171875 166.058594 285.847656 165.542969 285.480469 C 165.027344 285.113281 164.542969 284.707031 164.089844 284.265625 C 163.640625 283.820312 163.226562 283.339844 162.851562 282.828125 C 162.480469 282.316406 162.148438 281.78125 161.859375 281.214844 C 161.574219 280.648438 161.332031 280.066406 161.136719 279.460938 C 160.945312 278.859375 160.800781 278.246094 160.703125 277.617188 C 160.609375 276.992188 160.566406 276.359375 160.574219 275.726562 L 161.492188 180.554688 C 161.496094 180.097656 161.472656 179.644531 161.425781 179.191406 L 305.15625 96.21875 Z M 182.253906 282.363281 " fill-opacity="1" fill-rule="nonzero"/></g><g clip-path="url(#a81b7a8f82)"><path fill="#040404" d="M 372.597656 371.78125 C 372.367188 371.921875 372.4375 371.949219 372.542969 372.035156 C 372.839844 372.277344 372.882812 372.257812 372.910156 372.308594 C 372.921875 372.332031 372.875 372.992188 372.972656 373.027344 C 373.019531 373.042969 373.339844 372.769531 373.367188 372.789062 C 373.410156 372.820312 373.585938 373.121094 373.625 373.195312 C 373.644531 373.226562 373.679688 373.332031 373.722656 373.324219 C 373.765625 373.316406 373.777344 373.230469 373.792969 373.195312 C 373.980469 372.707031 374.332031 371.90625 374.683594 371.074219 C 374.707031 371.023438 374.804688 370.867188 374.660156 370.890625 C 374.257812 370.949219 373.191406 371.40625 372.597656 371.78125 Z M 372.992188 372.777344 C 372.988281 372.777344 372.976562 372.65625 372.984375 372.613281 C 373 372.519531 373.039062 372.421875 373.066406 372.332031 C 373.09375 372.25 373.105469 372.179688 373.171875 372.128906 C 373.15625 372.207031 373.039062 372.542969 372.992188 372.777344 Z M 373.042969 372.261719 C 372.988281 372.453125 372.988281 372.449219 372.984375 372.449219 C 372.984375 372.367188 372.953125 372.320312 373.042969 372.261719 Z M 373.566406 371.847656 C 373.539062 371.941406 373.550781 371.988281 373.433594 372.085938 C 373.441406 372.019531 373.472656 371.949219 373.492188 371.886719 C 373.5 371.867188 373.503906 371.820312 373.511719 371.804688 C 373.53125 371.777344 373.570312 371.746094 373.597656 371.734375 C 373.59375 371.773438 373.578125 371.808594 373.566406 371.847656 Z M 373.726562 371.625 C 373.722656 371.65625 373.707031 371.6875 373.699219 371.71875 C 373.675781 371.792969 373.664062 371.871094 373.59375 371.910156 C 373.671875 371.632812 373.640625 371.695312 373.726562 371.625 Z M 373.394531 372.0625 C 373.375 372.128906 373.386719 372.171875 373.273438 372.261719 C 373.28125 372.207031 373.304688 372.152344 373.320312 372.101562 C 373.351562 372.003906 373.367188 371.902344 373.460938 371.855469 C 373.4375 371.921875 373.417969 371.992188 373.394531 372.0625 Z M 373.140625 372.421875 C 373.128906 372.421875 373.171875 372.296875 373.179688 372.265625 C 373.207031 372.164062 373.226562 372.0625 373.304688 371.996094 C 373.183594 372.40625 373.21875 372.324219 373.140625 372.421875 Z M 373.078125 372.875 C 373.152344 372.621094 373.128906 372.695312 373.175781 372.539062 L 373.316406 372.714844 Z M 374.597656 371.09375 C 373.855469 372.824219 373.902344 372.703125 373.710938 373.1875 C 373.640625 373.101562 373.605469 372.945312 373.335938 372.617188 C 373.296875 372.566406 373.253906 372.511719 373.207031 372.472656 C 373.273438 372.3125 374.480469 371.144531 374.597656 371.09375 Z M 373.726562 371.773438 C 373.738281 371.730469 373.789062 371.578125 373.789062 371.574219 C 373.808594 371.546875 373.847656 371.519531 373.871094 371.511719 C 373.832031 371.675781 373.824219 371.695312 373.726562 371.773438 Z M 373.886719 371.621094 C 373.917969 371.449219 373.941406 371.445312 374.007812 371.40625 C 373.980469 371.53125 373.976562 371.550781 373.886719 371.621094 Z M 374.03125 371.480469 C 374.054688 371.398438 374.050781 371.34375 374.15625 371.304688 C 374.136719 371.386719 374.09375 371.4375 374.03125 371.480469 Z M 374.195312 371.332031 C 374.207031 371.28125 374.214844 371.253906 374.261719 371.234375 C 374.253906 371.28125 374.234375 371.308594 374.195312 371.332031 Z M 374.308594 371.230469 C 374.3125 371.183594 374.367188 371.164062 374.402344 371.148438 C 374.378906 371.179688 374.339844 371.214844 374.308594 371.230469 Z M 374.257812 371.085938 C 374.765625 370.910156 374.167969 371.078125 373.371094 371.828125 C 372.9375 372.234375 372.984375 372.257812 372.925781 372.214844 C 372.8125 372.132812 372.695312 372.0625 372.535156 371.933594 C 372.535156 371.859375 373.589844 371.316406 374.257812 371.085938 Z M 374.257812 371.085938 " fill-opacity="1" fill-rule="nonzero"/></g><path fill="#040404" d="M 372.832031 373.449219 C 372.8125 373.457031 372.816406 373.476562 372.742188 373.628906 C 372.585938 373.949219 372.453125 374.066406 372.441406 374.109375 C 372.4375 374.125 372.449219 374.144531 372.464844 374.144531 C 372.570312 374.132812 372.96875 373.390625 372.832031 373.449219 Z M 372.832031 373.449219 " fill-opacity="1" fill-rule="nonzero"/><path fill="#040404" d="M 372.472656 371.785156 C 372.488281 371.789062 372.488281 371.78125 372.605469 371.699219 C 372.886719 371.507812 372.941406 371.535156 372.996094 371.484375 C 373.015625 371.464844 373 371.4375 372.976562 371.441406 C 372.875 371.457031 372.355469 371.761719 372.472656 371.785156 Z M 372.472656 371.785156 " fill-opacity="1" fill-rule="nonzero"/><path fill="#040404" d="M 372.417969 371.6875 C 372.445312 371.691406 372.492188 371.648438 372.507812 371.625 C 372.515625 371.609375 372.511719 371.585938 372.492188 371.585938 C 372.464844 371.585938 372.421875 371.625 372.40625 371.644531 C 372.394531 371.660156 372.398438 371.6875 372.417969 371.6875 Z M 372.417969 371.6875 " fill-opacity="1" fill-rule="nonzero"/><g clip-path="url(#3eb6bb9d37)"><path fill="#040404" d="M 371.226562 373.410156 C 371.25 373.40625 371.25 373.363281 371.320312 373.273438 C 371.441406 373.117188 371.488281 373.175781 371.535156 373.132812 C 371.609375 373.066406 371.390625 373.003906 371.242188 373.269531 C 371.222656 373.300781 371.207031 373.335938 371.203125 373.375 C 371.199219 373.390625 371.207031 373.414062 371.226562 373.410156 Z M 371.226562 373.410156 " fill-opacity="1" fill-rule="nonzero"/><path fill="#040404" d="M 371.269531 373.105469 C 371.285156 373.105469 371.328125 373.074219 371.339844 373.058594 C 371.347656 373.039062 371.335938 373.019531 371.320312 373.023438 C 371.300781 373.027344 371.265625 373.046875 371.253906 373.066406 C 371.246094 373.082031 371.25 373.105469 371.269531 373.105469 Z M 371.269531 373.105469 " fill-opacity="1" fill-rule="nonzero"/></g><path fill="#040404" d="M 373.957031 372.335938 C 373.929688 372.347656 373.910156 372.425781 373.898438 372.457031 C 373.777344 372.726562 373.660156 372.988281 373.734375 372.964844 C 373.765625 372.953125 373.785156 372.871094 373.796875 372.839844 C 373.890625 372.605469 374.050781 372.296875 373.957031 372.335938 Z M 373.957031 372.335938 " fill-opacity="1" fill-rule="nonzero"/><g clip-path="url(#6a1382c812)"><path fill="#040404" d="M 374.0625 372.144531 C 374.035156 372.152344 374.015625 372.234375 374.054688 372.230469 C 374.082031 372.226562 374.101562 372.140625 374.0625 372.144531 Z M 374.0625 372.144531 " fill-opacity="1" fill-rule="nonzero"/></g><g clip-path="url(#b8934745f8)"><path fill="#040404" d="M 371.417969 374.960938 C 371.425781 374.945312 371.464844 374.863281 371.414062 374.882812 C 371.386719 374.894531 371.363281 374.933594 371.34375 374.957031 C 371.234375 375.097656 371.128906 375.121094 371.105469 375.148438 C 371.058594 375.210938 371.199219 375.253906 371.417969 374.960938 Z M 371.417969 374.960938 " fill-opacity="1" fill-rule="nonzero"/></g><g clip-path="url(#c1f1d06173)"><path fill="#040404" d="M 371.515625 375.074219 C 371.839844 374.675781 371.859375 374.347656 371.882812 374.324219 C 371.90625 374.296875 372.171875 374.347656 372.484375 373.9375 C 372.675781 373.6875 372.832031 373.292969 372.835938 373.273438 C 372.84375 373.253906 372.839844 373.226562 372.820312 373.214844 C 372.722656 373.160156 372.605469 373.898438 372.128906 374.152344 C 372.058594 374.191406 371.976562 374.230469 371.894531 374.230469 C 371.914062 374.097656 371.914062 373.953125 371.898438 373.824219 C 371.832031 373.296875 371.507812 373.144531 371.355469 373.328125 C 371.125 373.609375 371.316406 374.273438 371.804688 374.316406 C 371.785156 374.382812 371.703125 374.789062 371.382812 375.105469 C 371.316406 375.171875 371.257812 375.230469 371.175781 375.261719 C 371.152344 375.269531 371.128906 375.28125 371.136719 375.3125 C 371.148438 375.367188 371.222656 375.332031 371.25 375.320312 C 371.355469 375.269531 371.441406 375.167969 371.515625 375.074219 Z M 371.335938 373.707031 C 371.300781 373.363281 371.535156 373.191406 371.714844 373.492188 C 371.851562 373.730469 371.847656 374.097656 371.816406 374.234375 C 371.574219 374.199219 371.363281 373.996094 371.335938 373.707031 Z M 371.335938 373.707031 " fill-opacity="1" fill-rule="nonzero"/></g><path fill="#040404" d="M 372.285156 374.210938 C 372.253906 374.222656 372.257812 374.277344 372.292969 374.261719 C 372.324219 374.25 372.320312 374.195312 372.285156 374.210938 Z M 372.285156 374.210938 " fill-opacity="1" fill-rule="nonzero"/></svg>